<svg width="503" height="131" viewBox="0 0 503 131" fill="none" xmlns="http://www.w3.org/2000/svg">
<path d="M146.504 103.44C141.736 103.44 137.576 102.24 134.024 99.84C130.472 97.44 127.72 94.176 125.768 90.048C123.816 85.92 122.84 81.264 122.84 76.08C122.84 70.832 123.816 66.16 125.768 62.064C127.752 57.936 130.552 54.688 134.168 52.32C137.784 49.92 142.04 48.72 146.936 48.72C151.864 48.72 155.992 49.92 159.32 52.32C162.68 54.688 165.224 57.936 166.952 62.064C168.68 66.192 169.544 70.864 169.544 76.08C169.544 81.232 168.68 85.888 166.952 90.048C165.224 94.176 162.648 97.44 159.224 99.84C155.8 102.24 151.56 103.44 146.504 103.44ZM148.28 93.072C151.384 93.072 153.88 92.368 155.768 90.96C157.688 89.52 159.08 87.52 159.944 84.96C160.84 82.4 161.288 79.44 161.288 76.08C161.288 72.688 160.84 69.728 159.944 67.2C159.08 64.64 157.72 62.656 155.864 61.248C154.008 59.808 151.608 59.088 148.664 59.088C145.56 59.088 143 59.856 140.984 61.392C138.968 62.896 137.48 64.944 136.52 67.536C135.56 70.096 135.08 72.944 135.08 76.08C135.08 79.248 135.544 82.128 136.472 84.72C137.432 87.28 138.888 89.312 140.84 90.816C142.792 92.32 145.272 93.072 148.28 93.072ZM161.288 102V65.616H159.848V32.88H171.512V102H161.288ZM197.546 103.44C193.802 103.44 190.634 102.736 188.042 101.328C185.45 99.888 183.482 97.984 182.138 95.616C180.826 93.248 180.17 90.64 180.17 87.792C180.17 85.296 180.586 83.056 181.418 81.072C182.25 79.056 183.53 77.328 185.258 75.888C186.986 74.416 189.226 73.216 191.978 72.288C194.058 71.616 196.49 71.008 199.274 70.464C202.09 69.92 205.13 69.424 208.394 68.976C211.69 68.496 215.13 67.984 218.714 67.44L214.586 69.792C214.618 66.208 213.818 63.568 212.186 61.872C210.554 60.176 207.802 59.328 203.93 59.328C201.594 59.328 199.338 59.872 197.162 60.96C194.986 62.048 193.466 63.92 192.602 66.576L182.042 63.264C183.322 58.88 185.754 55.36 189.338 52.704C192.954 50.048 197.818 48.72 203.93 48.72C208.538 48.72 212.586 49.472 216.074 50.976C219.594 52.48 222.202 54.944 223.898 58.368C224.826 60.192 225.386 62.064 225.578 63.984C225.77 65.872 225.866 67.936 225.866 70.176V102H215.738V90.768L217.418 92.592C215.082 96.336 212.346 99.088 209.21 100.848C206.106 102.576 202.218 103.44 197.546 103.44ZM199.85 94.224C202.474 94.224 204.714 93.76 206.57 92.832C208.426 91.904 209.898 90.768 210.986 89.424C212.106 88.08 212.858 86.816 213.242 85.632C213.85 84.16 214.186 82.48 214.25 80.592C214.346 78.672 214.394 77.12 214.394 75.936L217.946 76.992C214.458 77.536 211.466 78.016 208.97 78.432C206.474 78.848 204.33 79.248 202.538 79.632C200.746 79.984 199.162 80.384 197.786 80.832C196.442 81.312 195.306 81.872 194.378 82.512C193.45 83.152 192.73 83.888 192.218 84.72C191.738 85.552 191.498 86.528 191.498 87.648C191.498 88.928 191.818 90.064 192.458 91.056C193.098 92.016 194.026 92.784 195.242 93.36C196.49 93.936 198.026 94.224 199.85 94.224ZM279.325 103.44C274.269 103.44 269.709 102.56 265.645 100.8C261.613 99.04 258.285 96.528 255.661 93.264C253.069 89.968 251.421 86.064 250.717 81.552L262.717 79.728C263.741 83.824 265.837 86.992 269.005 89.232C272.205 91.472 275.885 92.592 280.045 92.592C282.509 92.592 284.829 92.208 287.005 91.44C289.181 90.672 290.941 89.552 292.285 88.08C293.661 86.608 294.349 84.8 294.349 82.656C294.349 81.696 294.189 80.816 293.869 80.016C293.549 79.184 293.069 78.448 292.429 77.808C291.821 77.168 291.021 76.592 290.029 76.08C289.069 75.536 287.949 75.072 286.669 74.688L268.813 69.408C267.277 68.96 265.613 68.368 263.821 67.632C262.061 66.864 260.381 65.824 258.781 64.512C257.213 63.168 255.917 61.472 254.893 59.424C253.901 57.344 253.405 54.784 253.405 51.744C253.405 47.296 254.525 43.568 256.765 40.56C259.037 37.52 262.077 35.248 265.885 33.744C269.725 32.24 273.981 31.504 278.653 31.536C283.389 31.568 287.613 32.384 291.325 33.984C295.037 35.552 298.141 37.84 300.637 40.848C303.133 43.856 304.893 47.488 305.917 51.744L293.485 53.904C292.973 51.472 291.981 49.408 290.509 47.712C289.069 45.984 287.293 44.672 285.181 43.776C283.101 42.88 280.877 42.4 278.509 42.336C276.205 42.304 274.061 42.656 272.077 43.392C270.125 44.096 268.541 45.12 267.325 46.464C266.141 47.808 265.549 49.376 265.549 51.168C265.549 52.864 266.061 54.256 267.085 55.344C268.109 56.4 269.373 57.248 270.877 57.888C272.413 58.496 273.965 59.008 275.533 59.424L287.917 62.88C289.613 63.328 291.517 63.936 293.629 64.704C295.741 65.472 297.773 66.544 299.725 67.92C301.677 69.296 303.277 71.104 304.525 73.344C305.805 75.584 306.445 78.432 306.445 81.888C306.445 85.472 305.693 88.624 304.189 91.344C302.717 94.032 300.717 96.272 298.189 98.064C295.661 99.856 292.765 101.2 289.501 102.096C286.269 102.992 282.877 103.44 279.325 103.44ZM329.411 103.44C325.667 103.44 322.499 102.736 319.907 101.328C317.315 99.888 315.347 97.984 314.003 95.616C312.691 93.248 312.035 90.64 312.035 87.792C312.035 85.296 312.451 83.056 313.283 81.072C314.115 79.056 315.395 77.328 317.123 75.888C318.851 74.416 321.091 73.216 323.843 72.288C325.923 71.616 328.355 71.008 331.139 70.464C333.955 69.92 336.995 69.424 340.259 68.976C343.555 68.496 346.995 67.984 350.579 67.44L346.451 69.792C346.483 66.208 345.683 63.568 344.051 61.872C342.419 60.176 339.667 59.328 335.795 59.328C333.459 59.328 331.203 59.872 329.027 60.96C326.851 62.048 325.331 63.92 324.467 66.576L313.907 63.264C315.187 58.88 317.619 55.36 321.203 52.704C324.819 50.048 329.683 48.72 335.795 48.72C340.403 48.72 344.451 49.472 347.939 50.976C351.459 52.48 354.067 54.944 355.763 58.368C356.691 60.192 357.251 62.064 357.443 63.984C357.635 65.872 357.731 67.936 357.731 70.176V102H347.603V90.768L349.283 92.592C346.947 96.336 344.211 99.088 341.075 100.848C337.971 102.576 334.083 103.44 329.411 103.44ZM331.715 94.224C334.339 94.224 336.579 93.76 338.435 92.832C340.291 91.904 341.763 90.768 342.851 89.424C343.971 88.08 344.723 86.816 345.107 85.632C345.715 84.16 346.051 82.48 346.115 80.592C346.211 78.672 346.259 77.12 346.259 75.936L349.811 76.992C346.323 77.536 343.331 78.016 340.835 78.432C338.339 78.848 336.195 79.248 334.403 79.632C332.611 79.984 331.027 80.384 329.651 80.832C328.307 81.312 327.171 81.872 326.243 82.512C325.315 83.152 324.595 83.888 324.083 84.72C323.603 85.552 323.363 86.528 323.363 87.648C323.363 88.928 323.683 90.064 324.323 91.056C324.963 92.016 325.891 92.784 327.107 93.36C328.355 93.936 329.891 94.224 331.715 94.224ZM369.267 102V31.44H380.835V102H369.267ZM416.19 103.44C411.006 103.44 406.478 102.272 402.606 99.936C398.734 97.6 395.726 94.384 393.582 90.288C391.47 86.16 390.414 81.424 390.414 76.08C390.414 70.64 391.502 65.872 393.678 61.776C395.854 57.68 398.878 54.48 402.75 52.176C406.622 49.872 411.102 48.72 416.19 48.72C421.406 48.72 425.95 49.888 429.822 52.224C433.694 54.56 436.702 57.792 438.846 61.92C440.99 66.016 442.062 70.736 442.062 76.08C442.062 81.456 440.974 86.208 438.798 90.336C436.654 94.432 433.646 97.648 429.774 99.984C425.902 102.288 421.374 103.44 416.19 103.44ZM416.19 92.592C420.798 92.592 424.222 91.056 426.462 87.984C428.702 84.912 429.822 80.944 429.822 76.08C429.822 71.056 428.686 67.056 426.414 64.08C424.142 61.072 420.734 59.568 416.19 59.568C413.086 59.568 410.526 60.272 408.51 61.68C406.526 63.056 405.054 64.992 404.094 67.488C403.134 69.952 402.654 72.816 402.654 76.08C402.654 81.104 403.79 85.12 406.062 88.128C408.366 91.104 411.742 92.592 416.19 92.592ZM486.573 102V77.04C486.573 75.408 486.461 73.6 486.238 71.616C486.013 69.632 485.485 67.728 484.654 65.904C483.853 64.048 482.637 62.528 481.005 61.344C479.405 60.16 477.229 59.568 474.477 59.568C473.005 59.568 471.549 59.808 470.109 60.288C468.669 60.768 467.357 61.6 466.173 62.784C465.021 63.936 464.093 65.536 463.389 67.584C462.685 69.6 462.333 72.192 462.333 75.36L455.469 72.432C455.469 68.016 456.317 64.016 458.013 60.432C459.741 56.848 462.269 54 465.597 51.888C468.925 49.744 473.021 48.672 477.885 48.672C481.725 48.672 484.893 49.312 487.389 50.592C489.885 51.872 491.869 53.504 493.341 55.488C494.813 57.472 495.901 59.584 496.606 61.824C497.309 64.064 497.757 66.192 497.95 68.208C498.174 70.192 498.285 71.808 498.285 73.056V102H486.573ZM450.621 102V50.16H460.941V66.24H462.333V102H450.621Z" fill="#231F20"/>
<g clip-path="url(#clip0_4882_14)">
<path d="M11.8386 33.2858L32.4639 12.9714C33.7457 11.709 35.4842 10.9999 37.2969 10.9999C39.1096 10.9999 40.8481 11.709 42.1299 12.9714C43.4117 14.2337 44.1318 15.9457 44.1318 17.7309C44.1318 19.5161 43.4117 21.2282 42.1299 22.4905L21.4894 42.8024C18.9996 45.2561 17.0248 48.1687 15.6779 51.3739C14.331 54.5792 13.6384 58.0143 13.6396 61.4832C13.6407 64.9521 14.3357 68.3867 15.6847 71.5911C17.0338 74.7955 19.0105 77.7068 21.502 80.1588C23.9936 82.6109 26.9511 84.5556 30.2059 85.882C33.4606 87.2084 36.9487 87.8905 40.4711 87.8894C43.9935 87.8882 47.4812 87.2039 50.735 85.8753C53.9888 84.5468 56.9451 82.6001 59.435 80.1464L68.4354 71.2828C69.2511 70.4794 69.7094 69.3898 69.7094 68.2537C69.7094 67.1176 69.2511 66.028 68.4354 65.2247C67.6196 64.4213 66.5133 63.97 65.3596 63.97C64.206 63.97 63.0996 64.4213 62.2838 65.2247L52.5548 74.8034C50.896 76.4993 48.9107 77.8527 46.7147 78.7843C44.5188 79.716 42.1563 80.2073 39.7654 80.2295C37.3745 80.2517 35.003 79.8044 32.7896 78.9137C30.5762 78.0231 28.5653 76.7069 26.8743 75.0421C25.1833 73.3773 23.8462 71.3973 22.9411 69.2178C22.0361 67.0383 21.5812 64.703 21.603 62.3484C21.6249 59.9938 22.1231 57.6671 23.0684 55.5043C24.0138 53.3414 25.3874 51.3859 27.109 49.7518L36.775 40.2327C52.3632 24.8814 77.7232 24.8814 93.3089 40.2327C108.894 55.5839 108.897 80.5586 93.3089 95.9073L71.8616 117.031C70.5733 118.262 68.8451 118.944 67.0503 118.931C65.2554 118.917 63.538 118.209 62.269 116.959C60.9999 115.709 60.2812 114.017 60.2679 112.25C60.2547 110.482 60.948 108.78 62.1981 107.512L83.6454 86.3907C88.4709 81.5111 91.151 74.9563 91.1057 68.1452C91.0604 61.334 88.2934 54.8144 83.4034 49.9975C78.5134 45.1805 71.8939 42.4537 64.9777 42.4073C58.0615 42.3608 51.4048 44.9985 46.4486 49.7493L36.7826 59.2684C36.0029 60.0739 35.5739 61.1477 35.5873 62.2604C35.6006 63.3732 36.0553 64.4367 36.8542 65.2237C37.6531 66.0108 38.7328 66.459 39.8627 66.4726C40.9926 66.4863 42.0832 66.0642 42.9014 65.2967L52.6304 55.718C54.2911 54.0173 56.2795 52.66 58.4794 51.7253C60.6792 50.7906 63.0462 50.2975 65.4419 50.2746C67.8377 50.2518 70.2139 50.6998 72.4317 51.5924C74.6495 52.4849 76.6642 53.8042 78.358 55.4729C80.0517 57.1415 81.3905 59.1262 82.296 61.3106C83.2015 63.495 83.6554 65.8354 83.6313 68.1947C83.6072 70.554 83.1055 72.8848 82.1555 75.0509C81.2055 77.2169 79.8264 79.1746 78.0989 80.8093L69.0985 89.6755C53.3111 105.22 27.6259 105.22 11.8386 89.6755C-3.94876 74.1306 -3.94876 48.8307 11.8386 33.2858Z" fill="#231F20"/>
</g>
<defs>
<clipPath id="clip0_4882_14">
<rect width="105" height="108" fill="white" transform="translate(105 119) rotate(180)"/>
</clipPath>
</defs>
</svg>
